<svg width="115" height="33" viewBox="0 0 115 33" fill="none" xmlns="http://www.w3.org/2000/svg">
<path d="M20.3458 7.46943L0.1521 17.8218V10.3524L20.3458 0V7.46943Z" fill="#118DFF"/>
<path d="M0 26.9945V19.6561L20.4951 9.43475V16.9042L7.38425 23.4563V31.3189L0 26.9945Z" fill="#118DFF"/>
<path d="M29.7401 16.0873C29.0201 16.0873 28.4281 15.8793 27.9641 15.4633C27.5161 15.0313 27.2921 14.5033 27.2921 13.8793C27.2921 13.2393 27.5161 12.7113 27.9641 12.2953C28.4281 11.8633 29.0201 11.6473 29.7401 11.6473C30.4441 11.6473 31.0201 11.8633 31.4681 12.2953C31.9321 12.7113 32.1641 13.2393 32.1641 13.8793C32.1641 14.5033 31.9321 15.0313 31.4681 15.4633C31.0201 15.8793 30.4441 16.0873 29.7401 16.0873ZM31.7801 17.4793V30.8713H27.6761V17.4793H31.7801ZM38.8582 13.1113V30.8713H34.7542V13.1113H38.8582ZM45.9364 13.1113V30.8713H41.8324V13.1113H45.9364ZM59.8785 14.0233V17.3113H53.0145V20.8633H58.1505V24.0553H53.0145V30.8713H48.9105V14.0233H59.8785ZM66.1395 13.1113V30.8713H62.0355V13.1113H66.1395ZM75.2096 31.0633C73.8976 31.0633 72.7136 30.7833 71.6576 30.2233C70.6176 29.6633 69.7936 28.8633 69.1856 27.8233C68.5936 26.7833 68.2976 25.5673 68.2976 24.1753C68.2976 22.7993 68.6016 21.5913 69.2096 20.5513C69.8176 19.4953 70.6496 18.6873 71.7056 18.1273C72.7616 17.5673 73.9456 17.2873 75.2576 17.2873C76.5696 17.2873 77.7536 17.5673 78.8096 18.1273C79.8656 18.6873 80.6976 19.4953 81.3056 20.5513C81.9136 21.5913 82.2176 22.7993 82.2176 24.1753C82.2176 25.5513 81.9056 26.7673 81.2816 27.8233C80.6736 28.8633 79.8336 29.6633 78.7616 30.2233C77.7056 30.7833 76.5216 31.0633 75.2096 31.0633ZM75.2096 27.5113C75.9936 27.5113 76.6576 27.2233 77.2016 26.6473C77.7616 26.0713 78.0416 25.2473 78.0416 24.1753C78.0416 23.1033 77.7696 22.2793 77.2256 21.7033C76.6976 21.1273 76.0416 20.8393 75.2576 20.8393C74.4576 20.8393 73.7936 21.1273 73.2656 21.7033C72.7376 22.2633 72.4736 23.0873 72.4736 24.1753C72.4736 25.2473 72.7296 26.0713 73.2416 26.6473C73.7696 27.2233 74.4256 27.5113 75.2096 27.5113ZM103.619 17.4793L99.9949 30.8713H95.4589L93.3469 22.1833L91.1629 30.8713H86.6509L83.0029 17.4793H87.1069L89.0029 27.0553L91.2589 17.4793H95.6029L97.8829 27.0073L99.7549 17.4793H103.619Z" fill="#118DFF"/>
</svg>
